<?xml version="1.0" encoding="UTF-8" standalone="no"?>
<!DOCTYPE svg PUBLIC "-//W3C//DTD SVG 1.1//EN"
 "http://www.w3.org/Graphics/SVG/1.1/DTD/svg11.dtd">
<!-- Generated by graphviz version 2.40.1 (20161225.0304)
 -->
<!-- Title: dependencies Pages: 1 -->
<svg width="841pt" height="284pt"
 viewBox="0.00 0.00 841.00 284.00" xmlns="http://www.w3.org/2000/svg" xmlns:xlink="http://www.w3.org/1999/xlink">
<g id="graph0" class="graph" transform="scale(1 1) rotate(0) translate(4 280)">
<title>dependencies</title>
<polygon fill="#ffffff" stroke="transparent" points="-4,4 -4,-280 837,-280 837,4 -4,4"/>
<text text-anchor="start" x="395.5091" y="-42.4" font-family="sans-serif" font-weight="bold" font-size="14.00" fill="#000000">Legend</text>
<polygon fill="#ffffb3" stroke="transparent" points="182.5,-10 182.5,-30 202.5,-30 202.5,-10 182.5,-10"/>
<text text-anchor="start" x="206.129" y="-15.4" font-family="sans-serif" font-size="14.00" fill="#000000"> &#160;Declarations</text>
<polygon fill="#8dd3c7" stroke="transparent" points="295.5,-10 295.5,-30 315.5,-30 315.5,-10 295.5,-10"/>
<text text-anchor="start" x="319.2251" y="-15.4" font-family="sans-serif" font-size="14.00" fill="#000000"> &#160;Module</text>
<polygon fill="#80b1d3" stroke="transparent" points="381.5,-10 381.5,-30 401.5,-30 401.5,-10 381.5,-10"/>
<text text-anchor="start" x="405.2812" y="-15.4" font-family="sans-serif" font-size="14.00" fill="#000000"> &#160;Bootstrap</text>
<polygon fill="#fdb462" stroke="transparent" points="478.5,-10 478.5,-30 498.5,-30 498.5,-10 478.5,-10"/>
<text text-anchor="start" x="502.1732" y="-15.4" font-family="sans-serif" font-size="14.00" fill="#000000"> &#160;Providers</text>
<polygon fill="#fb8072" stroke="transparent" points="574.5,-10 574.5,-30 594.5,-30 594.5,-10 574.5,-10"/>
<text text-anchor="start" x="598.2258" y="-15.4" font-family="sans-serif" font-size="14.00" fill="#000000"> &#160;Exports</text>
<g id="clust1" class="cluster">
<title>cluster_AppModule</title>
<polygon fill="none" stroke="#000000" stroke-dasharray="1,5" points="8,-70 8,-268 825,-268 825,-70 8,-70"/>
</g>
<g id="clust2" class="cluster">
<title>cluster_AppModule_declarations</title>
<polygon fill="none" stroke="#000000" points="16,-78 16,-130 817,-130 817,-78 16,-78"/>
</g>
<g id="clust10" class="cluster">
<title>cluster_AppModule_bootstrap</title>
<polygon fill="none" stroke="#000000" points="341,-208 341,-260 465,-260 465,-208 341,-208"/>
</g>
<!-- AppComponent -->
<g id="node1" class="node">
<title>AppComponent</title>
<polygon fill="#ffffb3" stroke="#000000" points="808.9399,-122 703.0601,-122 703.0601,-86 808.9399,-86 808.9399,-122"/>
<text text-anchor="middle" x="756" y="-99.8" font-family="Times,serif" font-size="14.00" fill="#000000">AppComponent</text>
</g>
<!-- AppModule -->
<g id="node6" class="node">
<title>AppModule</title>
<polygon fill="#8dd3c7" stroke="#000000" points="444.6571,-187 441.6571,-191 420.6571,-191 417.6571,-187 361.3429,-187 361.3429,-151 444.6571,-151 444.6571,-187"/>
<text text-anchor="middle" x="403" y="-164.8" font-family="Times,serif" font-size="14.00" fill="#000000">AppModule</text>
</g>
<!-- AppComponent&#45;&gt;AppModule -->
<g id="edge1" class="edge">
<title>AppComponent&#45;&gt;AppModule</title>
<path fill="none" stroke="#000000" d="M756,-122.2843C756,-143.3211 756,-175 756,-175 756,-175 454.8799,-175 454.8799,-175"/>
<polygon fill="#000000" stroke="#000000" points="454.88,-171.5001 444.8799,-175 454.8799,-178.5001 454.88,-171.5001"/>
</g>
<!-- CommunityAnalysisComponent -->
<g id="node2" class="node">
<title>CommunityAnalysisComponent</title>
<polygon fill="#ffffb3" stroke="#000000" points="685.7231,-122 488.2769,-122 488.2769,-86 685.7231,-86 685.7231,-122"/>
<text text-anchor="middle" x="587" y="-99.8" font-family="Times,serif" font-size="14.00" fill="#000000">CommunityAnalysisComponent</text>
</g>
<!-- CommunityAnalysisComponent&#45;&gt;AppModule -->
<g id="edge2" class="edge">
<title>CommunityAnalysisComponent&#45;&gt;AppModule</title>
<path fill="none" stroke="#000000" d="M587,-122.0225C587,-139.3734 587,-163 587,-163 587,-163 454.7524,-163 454.7524,-163"/>
<polygon fill="#000000" stroke="#000000" points="454.7525,-159.5001 444.7524,-163 454.7524,-166.5001 454.7525,-159.5001"/>
</g>
<!-- FirstPageComponent -->
<g id="node3" class="node">
<title>FirstPageComponent</title>
<polygon fill="#ffffb3" stroke="#000000" points="470.2134,-122 335.7866,-122 335.7866,-86 470.2134,-86 470.2134,-122"/>
<text text-anchor="middle" x="403" y="-99.8" font-family="Times,serif" font-size="14.00" fill="#000000">FirstPageComponent</text>
</g>
<!-- FirstPageComponent&#45;&gt;AppModule -->
<g id="edge3" class="edge">
<title>FirstPageComponent&#45;&gt;AppModule</title>
<path fill="none" stroke="#000000" d="M403,-122.1061C403,-122.1061 403,-140.991 403,-140.991"/>
<polygon fill="#000000" stroke="#000000" points="399.5001,-140.9909 403,-150.991 406.5001,-140.991 399.5001,-140.9909"/>
</g>
<!-- MyNavComponent -->
<g id="node4" class="node">
<title>MyNavComponent</title>
<polygon fill="#ffffb3" stroke="#000000" points="318.0982,-122 193.9018,-122 193.9018,-86 318.0982,-86 318.0982,-122"/>
<text text-anchor="middle" x="256" y="-99.8" font-family="Times,serif" font-size="14.00" fill="#000000">MyNavComponent</text>
</g>
<!-- MyNavComponent&#45;&gt;AppModule -->
<g id="edge4" class="edge">
<title>MyNavComponent&#45;&gt;AppModule</title>
<path fill="none" stroke="#000000" d="M256,-122.0225C256,-139.3734 256,-163 256,-163 256,-163 351.2689,-163 351.2689,-163"/>
<polygon fill="#000000" stroke="#000000" points="351.2689,-166.5001 361.2689,-163 351.2689,-159.5001 351.2689,-166.5001"/>
</g>
<!-- SubmissionsComponent -->
<g id="node5" class="node">
<title>SubmissionsComponent</title>
<polygon fill="#ffffb3" stroke="#000000" points="176.1206,-122 23.8794,-122 23.8794,-86 176.1206,-86 176.1206,-122"/>
<text text-anchor="middle" x="100" y="-99.8" font-family="Times,serif" font-size="14.00" fill="#000000">SubmissionsComponent</text>
</g>
<!-- SubmissionsComponent&#45;&gt;AppModule -->
<g id="edge5" class="edge">
<title>SubmissionsComponent&#45;&gt;AppModule</title>
<path fill="none" stroke="#000000" d="M100,-122.2843C100,-143.3211 100,-175 100,-175 100,-175 351.1873,-175 351.1873,-175"/>
<polygon fill="#000000" stroke="#000000" points="351.1873,-178.5001 361.1873,-175 351.1872,-171.5001 351.1873,-178.5001"/>
</g>
<!-- AppComponent  -->
<g id="node7" class="node">
<title>AppComponent </title>
<polygon fill="#80b1d3" stroke="#000000" points="457.439,-252 348.561,-252 348.561,-216 457.439,-216 457.439,-252"/>
<text text-anchor="middle" x="403" y="-229.8" font-family="Times,serif" font-size="14.00" fill="#000000">AppComponent </text>
</g>
<!-- AppModule&#45;&gt;AppComponent  -->
<g id="edge6" class="edge">
<title>AppModule&#45;&gt;AppComponent </title>
<path fill="none" stroke="#000000" stroke-dasharray="1,5" d="M403,-187.1061C403,-187.1061 403,-205.991 403,-205.991"/>
<polygon fill="#000000" stroke="#000000" points="399.5001,-205.9909 403,-215.991 406.5001,-205.991 399.5001,-205.9909"/>
</g>
</g>
</svg>
